<?xml version="1.0" encoding="utf-8"?>
<!-- Generator: Adobe Illustrator 22.1.0, SVG Export Plug-In . SVG Version: 6.00 Build 0)  -->
<svg version="1.1" id="Grupo_1_1_" xmlns="http://www.w3.org/2000/svg" xmlns:xlink="http://www.w3.org/1999/xlink" x="0px" y="0px"
	 viewBox="0 0 216.5 126.7" style="enable-background:new 0 0 216.5 126.7;" xml:space="preserve">
<style type="text/css">
	.st0{fill:#1F7FEB;}
	.st1{fill-rule:evenodd;clip-rule:evenodd;fill:none;stroke:#EA0C71;stroke-width:4;stroke-miterlimit:10;}
	.st2{fill-rule:evenodd;clip-rule:evenodd;fill:none;stroke:#000000;stroke-width:5;stroke-miterlimit:10;}
</style>
<g id="D2IN">
	<g>
		<path d="M106.6,55.4c0.3,12.8-7.9,25.8-25.6,25.8c-5.7,0-11.4,0-17.1,0V30.8c5.7,0,11.4,0,17.1,0C98.1,30.8,106.3,43,106.6,55.4z
			 M67.9,34.4v43h13.2c15,0,21.9-11.2,21.7-22c-0.2-10.5-7.1-21-21.7-21H67.9z"/>
		<path class="st0" d="M147,75.1v6.1H113c0-1.5,0.2-3,0.7-4.4c0.9-2.3,2.3-4.6,4.2-6.9s4.7-4.9,8.3-7.8c5.6-4.6,9.4-8.2,11.4-10.9
			c2-2.7,3-5.2,3-7.6c0-2.5-0.9-4.6-2.7-6.3s-4.1-2.6-7-2.6c-3,0-5.5,0.9-7.3,2.7s-2.8,4.4-2.8,7.6l-6.5-0.7c0.4-4.9,2.1-8.5,5-11.1
			c2.9-2.5,6.8-3.8,11.7-3.8c4.9,0,8.9,1.4,11.7,4.1s4.3,6.1,4.3,10.2c0,2.1-0.4,4.1-1.3,6.1c-0.8,2-2.2,4.1-4.2,6.3
			c-2,2.2-5.2,5.2-9.8,9.1c-3.8,3.2-6.2,5.3-7.3,6.5s-2,2.3-2.7,3.4H147z"/>
		<path d="M155.5,81.2V30.8h3.8v50.4H155.5z"/>
		<path d="M172.1,30.8l33.9,41.7V30.8h3.8v50.4h-1.5l-34-41.6v41.6h-3.9V30.8H172.1z"/>
	</g>
</g>
<g id="discrete_to_integrated">
	<g>
		<path d="M68,87.1v9.4v6.2v3.4h-0.9V105c-0.3,0.4-0.7,0.7-1.2,0.9c-0.5,0.2-1,0.3-1.5,0.3c-0.5,0-1-0.1-1.4-0.3
			c-0.4-0.2-0.8-0.4-1.1-0.8c-0.3-0.3-0.6-0.7-0.8-1.1c-0.2-0.4-0.3-0.9-0.3-1.4v-6.2c0-0.5,0.1-1,0.3-1.4s0.4-0.8,0.8-1.1
			c0.3-0.3,0.7-0.6,1.1-0.8c0.4-0.2,0.9-0.3,1.4-0.3c0.5,0,1,0.1,1.5,0.3c0.5,0.2,0.9,0.5,1.2,0.9v-7H68z M64.4,105.4
			c0.4,0,0.7-0.1,1-0.2c0.3-0.1,0.6-0.3,0.8-0.6c0.2-0.2,0.4-0.5,0.6-0.8c0.1-0.3,0.2-0.7,0.2-1v-6.2c0-0.4-0.1-0.7-0.2-1
			c-0.1-0.3-0.3-0.6-0.6-0.8c-0.2-0.2-0.5-0.4-0.8-0.6c-0.3-0.1-0.7-0.2-1-0.2c-0.4,0-0.7,0.1-1,0.2c-0.3,0.1-0.6,0.3-0.8,0.6
			c-0.2,0.2-0.4,0.5-0.6,0.8c-0.1,0.3-0.2,0.7-0.2,1v6.2c0,0.4,0.1,0.7,0.2,1c0.1,0.3,0.3,0.6,0.6,0.8s0.5,0.4,0.8,0.6
			C63.7,105.3,64.1,105.4,64.4,105.4z"/>
		<path d="M70.7,92.8h0.9v0.9v12.2h-0.9V93.7h-0.9v-0.9H70.7z M70.9,89.8c-0.2,0-0.4-0.1-0.5-0.2c-0.1-0.1-0.2-0.3-0.2-0.5
			s0.1-0.4,0.2-0.5c0.1-0.1,0.3-0.2,0.5-0.2c0.2,0,0.3,0.1,0.5,0.2c0.1,0.1,0.2,0.3,0.2,0.5s-0.1,0.4-0.2,0.5
			C71.3,89.7,71.1,89.8,70.9,89.8z"/>
		<path d="M77.4,99.2c0.4,0.2,0.8,0.4,1.2,0.6c0.4,0.2,0.8,0.5,1.1,0.8c0.3,0.3,0.6,0.6,0.8,0.9c0.2,0.3,0.3,0.7,0.3,1.2
			c0,0.5-0.1,1-0.3,1.4c-0.2,0.4-0.4,0.8-0.8,1.1c-0.3,0.3-0.7,0.6-1.1,0.8c-0.4,0.2-0.9,0.3-1.4,0.3s-1-0.1-1.4-0.3
			c-0.4-0.2-0.8-0.4-1.1-0.8c-0.3-0.3-0.6-0.7-0.8-1.1c-0.2-0.4-0.3-0.9-0.3-1.4h0.9c0,0.4,0.1,0.7,0.2,1c0.1,0.3,0.3,0.6,0.6,0.8
			s0.5,0.4,0.8,0.6c0.3,0.1,0.7,0.2,1,0.2c0.4,0,0.7-0.1,1-0.2c0.3-0.1,0.6-0.3,0.8-0.6c0.2-0.2,0.4-0.5,0.6-0.8
			c0.1-0.3,0.2-0.7,0.2-1c0-0.3-0.1-0.6-0.2-0.9c-0.2-0.3-0.4-0.5-0.6-0.7c-0.3-0.2-0.6-0.4-0.9-0.6c-0.3-0.2-0.7-0.4-1.1-0.6
			c-0.4-0.2-0.8-0.4-1.2-0.6s-0.8-0.5-1.1-0.7c-0.3-0.3-0.6-0.6-0.8-0.9c-0.2-0.3-0.3-0.7-0.3-1.2c0-0.5,0.1-1,0.3-1.4
			s0.4-0.8,0.8-1.1c0.3-0.3,0.7-0.6,1.1-0.8c0.4-0.2,0.9-0.3,1.4-0.3s1,0.1,1.4,0.3c0.4,0.2,0.8,0.4,1.1,0.8
			c0.3,0.3,0.6,0.7,0.8,1.1s0.3,0.9,0.3,1.4h-0.9c0-0.4-0.1-0.7-0.2-1c-0.1-0.3-0.3-0.6-0.6-0.8c-0.2-0.2-0.5-0.4-0.8-0.6
			c-0.3-0.1-0.7-0.2-1-0.2c-0.4,0-0.7,0.1-1,0.2c-0.3,0.1-0.6,0.3-0.8,0.6c-0.2,0.2-0.4,0.5-0.6,0.8c-0.1,0.3-0.2,0.7-0.2,1
			c0,0.3,0.1,0.6,0.2,0.9c0.2,0.3,0.4,0.5,0.6,0.7s0.6,0.4,0.9,0.6C76.6,98.8,77,99,77.4,99.2z"/>
		<path d="M86.1,105.4c0.4,0,0.7-0.1,1-0.2c0.3-0.1,0.6-0.3,0.8-0.6c0.2-0.2,0.4-0.5,0.6-0.8c0.1-0.3,0.2-0.7,0.2-1h0.9
			c0,0.5-0.1,1-0.3,1.4c-0.2,0.4-0.4,0.8-0.8,1.1c-0.3,0.3-0.7,0.6-1.1,0.8c-0.4,0.2-0.9,0.3-1.4,0.3s-1-0.1-1.4-0.3
			c-0.4-0.2-0.8-0.4-1.1-0.8c-0.3-0.3-0.6-0.7-0.8-1.1c-0.2-0.4-0.3-0.9-0.3-1.4v-6.2c0-0.5,0.1-1,0.3-1.4s0.4-0.8,0.8-1.1
			c0.3-0.3,0.7-0.6,1.1-0.8c0.4-0.2,0.9-0.3,1.4-0.3s1,0.1,1.4,0.3c0.4,0.2,0.8,0.4,1.1,0.8c0.3,0.3,0.6,0.7,0.8,1.1
			s0.3,0.9,0.3,1.4h-0.9c0-0.4-0.1-0.7-0.2-1c-0.1-0.3-0.3-0.6-0.6-0.8c-0.2-0.2-0.5-0.4-0.8-0.6c-0.3-0.1-0.7-0.2-1-0.2
			c-0.4,0-0.7,0.1-1,0.2c-0.3,0.1-0.6,0.3-0.8,0.6c-0.2,0.2-0.4,0.5-0.6,0.8c-0.1,0.3-0.2,0.7-0.2,1v6.2c0,0.4,0.1,0.7,0.2,1
			c0.1,0.3,0.3,0.6,0.6,0.8s0.5,0.4,0.8,0.6C85.4,105.3,85.7,105.4,86.1,105.4z"/>
		<path d="M97,92.9v0.9h-1c-0.4,0-0.7,0.1-1,0.2s-0.6,0.3-0.8,0.6c-0.2,0.2-0.4,0.5-0.6,0.8c-0.1,0.3-0.2,0.7-0.2,1v3.1v6.5h-0.9
			v-6.5v-3.1v-2.5h-0.9V93h0.9h0.9v0.9v0.2c0.7-0.8,1.5-1.2,2.6-1.2H97z"/>
		<path d="M102.7,98.8c-0.2,0.1-0.4,0.2-0.8,0.3s-0.8,0.3-1.2,0.5c-0.4,0.2-0.9,0.3-1.3,0.5c-0.4,0.2-0.7,0.3-1,0.3v2.3
			c0,0.4,0.1,0.7,0.2,1c0.1,0.3,0.3,0.6,0.6,0.8s0.5,0.4,0.8,0.6c0.3,0.1,0.7,0.2,1,0.2c0.4,0,0.7-0.1,1-0.2
			c0.3-0.1,0.6-0.3,0.8-0.6c0.2-0.2,0.4-0.5,0.6-0.8c0.1-0.3,0.2-0.7,0.2-1h0.9c0,0.5-0.1,1-0.3,1.4c-0.2,0.4-0.4,0.8-0.8,1.1
			c-0.3,0.3-0.7,0.6-1.1,0.8c-0.4,0.2-0.9,0.3-1.4,0.3s-1-0.1-1.4-0.3c-0.4-0.2-0.8-0.4-1.1-0.8c-0.3-0.3-0.6-0.7-0.8-1.1
			c-0.2-0.4-0.3-0.9-0.3-1.4v-6.2c0-0.5,0.1-1,0.3-1.4s0.4-0.8,0.8-1.1c0.3-0.3,0.7-0.6,1.1-0.8c0.4-0.2,0.9-0.3,1.4-0.3
			s1,0.1,1.4,0.3c0.4,0.2,0.8,0.4,1.1,0.8c0.3,0.3,0.6,0.7,0.8,1.1s0.3,0.9,0.3,1.4v0C104.7,97.5,104.1,98.3,102.7,98.8z
			 M101.2,93.8c-0.4,0-0.7,0.1-1,0.2c-0.3,0.1-0.6,0.3-0.8,0.6c-0.2,0.2-0.4,0.5-0.6,0.8c-0.1,0.3-0.2,0.7-0.2,1v3
			c0.3-0.1,0.6-0.2,1-0.4c0.4-0.2,0.8-0.3,1.2-0.4c0.4-0.1,0.7-0.3,1.1-0.4c0.3-0.1,0.6-0.2,0.7-0.3c0.3-0.1,0.6-0.3,1-0.6
			s0.5-0.6,0.5-1c0-0.4-0.1-0.7-0.2-1c-0.1-0.3-0.3-0.6-0.6-0.8c-0.2-0.2-0.5-0.4-0.8-0.6C101.9,93.8,101.5,93.8,101.2,93.8z"/>
		<path d="M107.3,99.5v3.1c0,0.4,0.1,0.7,0.2,1c0.1,0.3,0.3,0.6,0.5,0.8s0.5,0.4,0.7,0.6c0.3,0.1,0.6,0.2,0.9,0.2v0.9
			c-0.4,0-0.9-0.1-1.2-0.3s-0.7-0.4-1-0.8c-0.3-0.3-0.5-0.7-0.7-1.1c-0.2-0.4-0.3-0.9-0.3-1.4v-3.1v-5.6V93v-3.7h0.9V93h2.9v0.9
			h-2.9V99.5z"/>
		<path d="M116.2,98.8c-0.2,0.1-0.4,0.2-0.8,0.3s-0.8,0.3-1.2,0.5s-0.9,0.3-1.3,0.5s-0.7,0.3-1,0.3v2.3c0,0.4,0.1,0.7,0.2,1
			c0.1,0.3,0.3,0.6,0.6,0.8s0.5,0.4,0.8,0.6c0.3,0.1,0.7,0.2,1,0.2s0.7-0.1,1-0.2c0.3-0.1,0.6-0.3,0.8-0.6c0.2-0.2,0.4-0.5,0.6-0.8
			c0.1-0.3,0.2-0.7,0.2-1h0.9c0,0.5-0.1,1-0.3,1.4c-0.2,0.4-0.4,0.8-0.8,1.1c-0.3,0.3-0.7,0.6-1.1,0.8c-0.4,0.2-0.9,0.3-1.4,0.3
			s-1-0.1-1.4-0.3c-0.4-0.2-0.8-0.4-1.1-0.8c-0.3-0.3-0.6-0.7-0.8-1.1c-0.2-0.4-0.3-0.9-0.3-1.4v-6.2c0-0.5,0.1-1,0.3-1.4
			s0.4-0.8,0.8-1.1c0.3-0.3,0.7-0.6,1.1-0.8c0.4-0.2,0.9-0.3,1.4-0.3s1,0.1,1.4,0.3c0.4,0.2,0.8,0.4,1.1,0.8
			c0.3,0.3,0.6,0.7,0.8,1.1c0.2,0.4,0.3,0.9,0.3,1.4v0C118.2,97.5,117.5,98.3,116.2,98.8z M114.7,93.8c-0.4,0-0.7,0.1-1,0.2
			s-0.6,0.3-0.8,0.6c-0.2,0.2-0.4,0.5-0.6,0.8c-0.1,0.3-0.2,0.7-0.2,1v3c0.3-0.1,0.6-0.2,1-0.4c0.4-0.2,0.8-0.3,1.2-0.4
			c0.4-0.1,0.7-0.3,1.1-0.4c0.3-0.1,0.6-0.2,0.7-0.3c0.3-0.1,0.6-0.3,1-0.6c0.3-0.2,0.5-0.6,0.5-1c0-0.4-0.1-0.7-0.2-1
			c-0.1-0.3-0.3-0.6-0.6-0.8c-0.2-0.2-0.5-0.4-0.8-0.6S115,93.8,114.7,93.8z"/>
		<path class="st0" d="M125.1,99.5v3.1c0,0.4,0.1,0.7,0.2,1c0.1,0.3,0.3,0.6,0.5,0.8s0.5,0.4,0.7,0.6c0.3,0.1,0.6,0.2,0.9,0.2v0.9
			c-0.4,0-0.9-0.1-1.2-0.3s-0.7-0.4-1-0.8c-0.3-0.3-0.5-0.7-0.7-1.1c-0.2-0.4-0.3-0.9-0.3-1.4v-3.1v-5.6V93v-3.7h0.9V93h2.9v0.9
			h-2.9V99.5z"/>
		<path class="st0" d="M132.3,106.2c-0.5,0-1-0.1-1.4-0.3c-0.4-0.2-0.8-0.4-1.1-0.8c-0.3-0.3-0.6-0.7-0.8-1.1
			c-0.2-0.4-0.3-0.9-0.3-1.4v-6.2c0-0.5,0.1-1,0.3-1.4s0.4-0.8,0.8-1.1c0.3-0.3,0.7-0.6,1.1-0.8c0.4-0.2,0.9-0.3,1.4-0.3
			s1,0.1,1.4,0.3c0.4,0.2,0.8,0.4,1.1,0.8c0.3,0.3,0.6,0.7,0.8,1.1c0.2,0.4,0.3,0.9,0.3,1.4v6.2c0,0.5-0.1,1-0.3,1.4
			c-0.2,0.4-0.4,0.8-0.8,1.1c-0.3,0.3-0.7,0.6-1.1,0.8C133.2,106.1,132.8,106.2,132.3,106.2z M132.3,93.8c-0.4,0-0.7,0.1-1,0.2
			s-0.6,0.3-0.8,0.6c-0.2,0.2-0.4,0.5-0.6,0.8c-0.1,0.3-0.2,0.7-0.2,1v6.2c0,0.4,0.1,0.7,0.2,1c0.1,0.3,0.3,0.6,0.6,0.8
			s0.5,0.4,0.8,0.6c0.3,0.1,0.7,0.2,1,0.2s0.7-0.1,1-0.2c0.3-0.1,0.6-0.3,0.8-0.6c0.2-0.2,0.4-0.5,0.6-0.8c0.1-0.3,0.2-0.7,0.2-1
			v-6.2c0-0.4-0.1-0.7-0.2-1c-0.1-0.3-0.3-0.6-0.6-0.8c-0.2-0.2-0.5-0.4-0.8-0.6S132.6,93.8,132.3,93.8z"/>
		<path d="M142.7,92.8h0.9v0.9v12.2h-0.9V93.7h-0.9v-0.9H142.7z M142.9,89.8c-0.2,0-0.4-0.1-0.5-0.2c-0.1-0.1-0.2-0.3-0.2-0.5
			s0.1-0.4,0.2-0.5c0.1-0.1,0.3-0.2,0.5-0.2c0.2,0,0.3,0.1,0.5,0.2c0.1,0.1,0.2,0.3,0.2,0.5s-0.1,0.4-0.2,0.5
			C143.2,89.7,143.1,89.8,142.9,89.8z"/>
		<path d="M149.5,92.9c0.5,0,1,0.1,1.4,0.3c0.4,0.2,0.8,0.4,1.1,0.8c0.3,0.3,0.6,0.7,0.8,1.1c0.2,0.4,0.3,0.9,0.3,1.4v3.1v6.5h-0.9
			v-6.5v-3.1c0-0.4-0.1-0.7-0.2-1c-0.1-0.3-0.3-0.6-0.6-0.8c-0.2-0.2-0.5-0.4-0.8-0.6s-0.7-0.2-1-0.2s-0.7,0.1-1,0.2
			s-0.6,0.3-0.8,0.6c-0.2,0.2-0.4,0.5-0.6,0.8c-0.1,0.3-0.2,0.7-0.2,1v3.1v6.5h-0.9v-6.5v-3.1V93h0.9v1.1c0.3-0.4,0.7-0.7,1.2-0.9
			C148.5,93,149,92.9,149.5,92.9z"/>
		<path d="M155.8,99.5v3.1c0,0.4,0.1,0.7,0.2,1c0.1,0.3,0.3,0.6,0.5,0.8s0.5,0.4,0.7,0.6c0.3,0.1,0.6,0.2,0.9,0.2v0.9
			c-0.4,0-0.9-0.1-1.2-0.3s-0.7-0.4-1-0.8c-0.3-0.3-0.5-0.7-0.7-1.1c-0.2-0.4-0.3-0.9-0.3-1.4v-3.1v-5.6V93v-3.7h0.9V93h2.9v0.9
			h-2.9V99.5z"/>
		<path d="M164.6,98.8c-0.2,0.1-0.4,0.2-0.8,0.3s-0.8,0.3-1.2,0.5s-0.9,0.3-1.3,0.5s-0.7,0.3-1,0.3v2.3c0,0.4,0.1,0.7,0.2,1
			c0.1,0.3,0.3,0.6,0.6,0.8s0.5,0.4,0.8,0.6c0.3,0.1,0.7,0.2,1,0.2s0.7-0.1,1-0.2c0.3-0.1,0.6-0.3,0.8-0.6c0.2-0.2,0.4-0.5,0.6-0.8
			c0.1-0.3,0.2-0.7,0.2-1h0.9c0,0.5-0.1,1-0.3,1.4c-0.2,0.4-0.4,0.8-0.8,1.1c-0.3,0.3-0.7,0.6-1.1,0.8c-0.4,0.2-0.9,0.3-1.4,0.3
			s-1-0.1-1.4-0.3c-0.4-0.2-0.8-0.4-1.1-0.8c-0.3-0.3-0.6-0.7-0.8-1.1c-0.2-0.4-0.3-0.9-0.3-1.4v-6.2c0-0.5,0.1-1,0.3-1.4
			s0.4-0.8,0.8-1.1c0.3-0.3,0.7-0.6,1.1-0.8c0.4-0.2,0.9-0.3,1.4-0.3s1,0.1,1.4,0.3c0.4,0.2,0.8,0.4,1.1,0.8
			c0.3,0.3,0.6,0.7,0.8,1.1c0.2,0.4,0.3,0.9,0.3,1.4v0C166.7,97.5,166,98.3,164.6,98.8z M163.1,93.8c-0.4,0-0.7,0.1-1,0.2
			s-0.6,0.3-0.8,0.6c-0.2,0.2-0.4,0.5-0.6,0.8c-0.1,0.3-0.2,0.7-0.2,1v3c0.3-0.1,0.6-0.2,1-0.4c0.4-0.2,0.8-0.3,1.2-0.4
			c0.4-0.1,0.7-0.3,1.1-0.4c0.3-0.1,0.6-0.2,0.7-0.3c0.3-0.1,0.6-0.3,1-0.6c0.3-0.2,0.5-0.6,0.5-1c0-0.4-0.1-0.7-0.2-1
			c-0.1-0.3-0.3-0.6-0.6-0.8c-0.2-0.2-0.5-0.4-0.8-0.6S163.5,93.8,163.1,93.8z"/>
		<path d="M175.5,93v3.4v6.2v6c0,0.5-0.1,1-0.3,1.4c-0.2,0.4-0.4,0.8-0.8,1.1c-0.3,0.3-0.7,0.6-1.1,0.8c-0.4,0.2-0.9,0.3-1.4,0.3
			s-1-0.1-1.4-0.3c-0.4-0.2-0.8-0.4-1.1-0.8c-0.3-0.3-0.6-0.7-0.8-1.1s-0.3-0.9-0.3-1.4h0.9c0,0.4,0.1,0.7,0.2,1
			c0.1,0.3,0.3,0.6,0.6,0.8s0.5,0.4,0.8,0.6s0.7,0.2,1,0.2s0.7-0.1,1-0.2s0.6-0.3,0.8-0.6c0.2-0.2,0.4-0.5,0.6-0.8
			c0.1-0.3,0.2-0.7,0.2-1V105c-0.3,0.4-0.7,0.7-1.2,0.9c-0.5,0.2-1,0.3-1.5,0.3c-0.5,0-1-0.1-1.4-0.3c-0.4-0.2-0.8-0.4-1.1-0.8
			c-0.3-0.3-0.6-0.7-0.8-1.1c-0.2-0.4-0.3-0.9-0.3-1.4v-6.2c0-0.5,0.1-1,0.3-1.4s0.4-0.8,0.8-1.1c0.3-0.3,0.7-0.6,1.1-0.8
			c0.4-0.2,0.9-0.3,1.4-0.3c0.5,0,1,0.1,1.5,0.3c0.5,0.2,0.9,0.5,1.2,0.9V93H175.5z M171.9,105.4c0.4,0,0.7-0.1,1-0.2
			c0.3-0.1,0.6-0.3,0.8-0.6c0.2-0.2,0.4-0.5,0.6-0.8c0.1-0.3,0.2-0.7,0.2-1v-6.2c0-0.4-0.1-0.7-0.2-1c-0.1-0.3-0.3-0.6-0.6-0.8
			c-0.2-0.2-0.5-0.4-0.8-0.6s-0.7-0.2-1-0.2s-0.7,0.1-1,0.2s-0.6,0.3-0.8,0.6c-0.2,0.2-0.4,0.5-0.6,0.8c-0.1,0.3-0.2,0.7-0.2,1v6.2
			c0,0.4,0.1,0.7,0.2,1c0.1,0.3,0.3,0.6,0.6,0.8s0.5,0.4,0.8,0.6C171.2,105.3,171.6,105.4,171.9,105.4z"/>
		<path d="M182.8,92.9v0.9h-1c-0.4,0-0.7,0.1-1,0.2c-0.3,0.1-0.6,0.3-0.8,0.6c-0.2,0.2-0.4,0.5-0.6,0.8s-0.2,0.7-0.2,1v3.1v6.5h-0.9
			v-6.5v-3.1v-2.5h-0.9V93h0.9h0.9v0.9v0.2c0.7-0.8,1.5-1.2,2.6-1.2H182.8z"/>
		<path d="M187.1,92.9c0.5,0,0.9,0.1,1.4,0.3s0.8,0.4,1,0.8c0.3,0.3,0.5,0.7,0.7,1.1c0.2,0.4,0.3,0.9,0.3,1.4v3.1v3.1v3.4h-0.9V105
			c-0.3,0.4-0.7,0.7-1.2,0.9c-0.5,0.2-1,0.3-1.5,0.3c-0.5,0-1-0.1-1.4-0.3c-0.4-0.2-0.8-0.4-1.1-0.8c-0.3-0.3-0.6-0.7-0.8-1.1
			c-0.2-0.4-0.3-0.9-0.3-1.4v-0.7c0-1.1,0.7-1.9,2-2.4c0.2-0.1,0.4-0.2,0.8-0.3s0.8-0.3,1.2-0.5s0.9-0.3,1.3-0.5
			c0.4-0.2,0.7-0.3,0.9-0.4v-1.5c0-0.7-0.2-1.4-0.7-1.9c-0.5-0.5-1-0.8-1.8-0.8c-0.4,0-0.7,0.1-1,0.2s-0.6,0.3-0.8,0.6
			c-0.2,0.2-0.4,0.5-0.6,0.8c-0.1,0.3-0.2,0.7-0.2,1h-0.9c0-0.5,0.1-1,0.3-1.4s0.4-0.8,0.8-1.1c0.3-0.3,0.7-0.6,1.1-0.8
			C186.1,93,186.6,92.9,187.1,92.9z M189.6,99.5v-0.7c-0.3,0.1-0.6,0.2-1,0.4s-0.8,0.3-1.2,0.4s-0.7,0.3-1.1,0.4
			c-0.3,0.1-0.5,0.2-0.7,0.3c-0.3,0.1-0.7,0.3-1,0.6c-0.3,0.2-0.5,0.6-0.5,1v0.7c0,0.4,0.1,0.7,0.2,1c0.1,0.3,0.3,0.6,0.6,0.8
			s0.5,0.4,0.8,0.6c0.3,0.1,0.7,0.2,1,0.2s0.7-0.1,1-0.2c0.3-0.1,0.6-0.3,0.8-0.6c0.2-0.2,0.4-0.5,0.6-0.8c0.1-0.3,0.2-0.7,0.2-1
			V99.5z"/>
		<path d="M193.6,99.5v3.1c0,0.4,0.1,0.7,0.2,1c0.1,0.3,0.3,0.6,0.5,0.8s0.5,0.4,0.7,0.6c0.3,0.1,0.6,0.2,0.9,0.2v0.9
			c-0.4,0-0.9-0.1-1.2-0.3s-0.7-0.4-1-0.8c-0.3-0.3-0.5-0.7-0.7-1.1c-0.2-0.4-0.3-0.9-0.3-1.4v-3.1v-5.6V93v-3.7h0.9V93h2.9v0.9
			h-2.9V99.5z"/>
		<path d="M202.4,98.8c-0.2,0.1-0.4,0.2-0.8,0.3s-0.8,0.3-1.2,0.5s-0.9,0.3-1.3,0.5s-0.7,0.3-1,0.3v2.3c0,0.4,0.1,0.7,0.2,1
			c0.1,0.3,0.3,0.6,0.6,0.8s0.5,0.4,0.8,0.6c0.3,0.1,0.7,0.2,1,0.2s0.7-0.1,1-0.2c0.3-0.1,0.6-0.3,0.8-0.6c0.2-0.2,0.4-0.5,0.6-0.8
			c0.1-0.3,0.2-0.7,0.2-1h0.9c0,0.5-0.1,1-0.3,1.4c-0.2,0.4-0.4,0.8-0.8,1.1c-0.3,0.3-0.7,0.6-1.1,0.8c-0.4,0.2-0.9,0.3-1.4,0.3
			s-1-0.1-1.4-0.3c-0.4-0.2-0.8-0.4-1.1-0.8c-0.3-0.3-0.6-0.7-0.8-1.1c-0.2-0.4-0.3-0.9-0.3-1.4v-6.2c0-0.5,0.1-1,0.3-1.4
			s0.4-0.8,0.8-1.1c0.3-0.3,0.7-0.6,1.1-0.8c0.4-0.2,0.9-0.3,1.4-0.3s1,0.1,1.4,0.3c0.4,0.2,0.8,0.4,1.1,0.8
			c0.3,0.3,0.6,0.7,0.8,1.1c0.2,0.4,0.3,0.9,0.3,1.4v0C204.4,97.5,203.8,98.3,202.4,98.8z M200.9,93.8c-0.4,0-0.7,0.1-1,0.2
			s-0.6,0.3-0.8,0.6c-0.2,0.2-0.4,0.5-0.6,0.8c-0.1,0.3-0.2,0.7-0.2,1v3c0.3-0.1,0.6-0.2,1-0.4c0.4-0.2,0.8-0.3,1.2-0.4
			c0.4-0.1,0.7-0.3,1.1-0.4c0.3-0.1,0.6-0.2,0.7-0.3c0.3-0.1,0.6-0.3,1-0.6c0.3-0.2,0.5-0.6,0.5-1c0-0.4-0.1-0.7-0.2-1
			c-0.1-0.3-0.3-0.6-0.6-0.8c-0.2-0.2-0.5-0.4-0.8-0.6S201.3,93.8,200.9,93.8z"/>
		<path d="M213.4,87.1v9.4v6.2v3.4h-0.9V105c-0.3,0.4-0.7,0.7-1.2,0.9c-0.5,0.2-1,0.3-1.5,0.3c-0.5,0-1-0.1-1.4-0.3
			c-0.4-0.2-0.8-0.4-1.1-0.8c-0.3-0.3-0.6-0.7-0.8-1.1c-0.2-0.4-0.3-0.9-0.3-1.4v-6.2c0-0.5,0.1-1,0.3-1.4s0.4-0.8,0.8-1.1
			c0.3-0.3,0.7-0.6,1.1-0.8c0.4-0.2,0.9-0.3,1.4-0.3c0.5,0,1,0.1,1.5,0.3c0.5,0.2,0.9,0.5,1.2,0.9v-7H213.4z M209.9,105.4
			c0.4,0,0.7-0.1,1-0.2c0.3-0.1,0.6-0.3,0.8-0.6c0.2-0.2,0.4-0.5,0.6-0.8c0.1-0.3,0.2-0.7,0.2-1v-6.2c0-0.4-0.1-0.7-0.2-1
			c-0.1-0.3-0.3-0.6-0.6-0.8c-0.2-0.2-0.5-0.4-0.8-0.6s-0.7-0.2-1-0.2s-0.7,0.1-1,0.2s-0.6,0.3-0.8,0.6c-0.2,0.2-0.4,0.5-0.6,0.8
			c-0.1,0.3-0.2,0.7-0.2,1v6.2c0,0.4,0.1,0.7,0.2,1c0.1,0.3,0.3,0.6,0.6,0.8s0.5,0.4,0.8,0.6C209.1,105.3,209.5,105.4,209.9,105.4z"
			/>
	</g>
</g>
<path d="M96.4,111.4c-9.7,6.7-21.2,10.3-33,10.3C31.2,121.7,5,95.5,5,63.3S31.2,5,63.3,5c3.9,0,7.9,0.4,11.8,1.2L94,25.1h7.1
	L77.6,1.6l-0.7-0.2c-4.5-1-9-1.5-13.5-1.5C28.4,0,0,28.4,0,63.3s28.4,63.3,63.3,63.3c15.2,0,29.7-5.4,41.2-15.3H96.4z"/>
</svg>
