<svg xmlns="http://www.w3.org/2000/svg" xmlns:xlink="http://www.w3.org/1999/xlink" viewBox="0 0 256 256"><defs><style>.cls-1{fill:#fff;}.cls-2{fill:url(#Degradado_sin_nombre_7);}.cls-3{opacity:0.65;}</style><linearGradient id="Degradado_sin_nombre_7" x1="128" y1="178.85" x2="128" y2="10.15" gradientUnits="userSpaceOnUse"><stop offset="0" stop-color="#2e3192"/><stop offset="1" stop-color="#29abe2"/></linearGradient></defs><title>logo-icon</title><g id="Capa_2" data-name="Capa 2"><g id="Capa_1-2" data-name="Capa 1"><rect width="256" height="256" rx="20" ry="20"/><path class="cls-1" d="M35.38,195l10.54,31H46l10-31H70v45.06H60.69V208.15h-.13l-11,31.94H41.88L30.83,208.47h-.12v31.62H21.43V195Z"/><path class="cls-1" d="M124.31,195v8.33h-23.8V213h21.84v7.7H100.51v11h24.3v8.33H90.6V195Z"/><path class="cls-1" d="M151,229a7.26,7.26,0,0,0,2.18,2.56,9.62,9.62,0,0,0,3.19,1.45,15.31,15.31,0,0,0,3.79.47,19.39,19.39,0,0,0,2.84-.22,10,10,0,0,0,2.84-.85,6.2,6.2,0,0,0,2.21-1.74,4.32,4.32,0,0,0,.88-2.8,4,4,0,0,0-1.17-3A9.17,9.17,0,0,0,164.7,223a29.88,29.88,0,0,0-4.29-1.33q-2.4-.57-4.86-1.26a43.25,43.25,0,0,1-4.92-1.55,17,17,0,0,1-4.3-2.37,10.55,10.55,0,0,1-4.22-8.9,11.76,11.76,0,0,1,1.48-6,13.31,13.31,0,0,1,3.88-4.26,16.93,16.93,0,0,1,5.43-2.53A23.39,23.39,0,0,1,159,194a28.94,28.94,0,0,1,6.78.79,17,17,0,0,1,5.78,2.56,13,13,0,0,1,4,4.51,13.94,13.94,0,0,1,1.48,6.66h-9.59a8,8,0,0,0-.86-3.35,5.58,5.58,0,0,0-1.92-2.08,8.27,8.27,0,0,0-2.75-1.07,16.84,16.84,0,0,0-3.37-.32,11.52,11.52,0,0,0-2.4.26,6.25,6.25,0,0,0-2.18.88,5.51,5.51,0,0,0-1.61,1.58,4.23,4.23,0,0,0-.63,2.39,4.12,4.12,0,0,0,.5,2.15,4.56,4.56,0,0,0,2,1.52,25.72,25.72,0,0,0,4.1,1.38q2.63.7,6.85,1.77c.84.17,2,.47,3.51.92a16.81,16.81,0,0,1,4.45,2.11,13.44,13.44,0,0,1,3.81,3.88,11,11,0,0,1,1.61,6.22,13.73,13.73,0,0,1-1.2,5.74,12.41,12.41,0,0,1-3.56,4.58,17.37,17.37,0,0,1-5.87,3,28,28,0,0,1-8.11,1.07,28.49,28.49,0,0,1-7.23-.92,17.83,17.83,0,0,1-6.18-2.87,14.09,14.09,0,0,1-4.26-5,14.83,14.83,0,0,1-1.52-7.2h9.59A8.33,8.33,0,0,0,151,229Z"/><path class="cls-1" d="M229.46,236.65q-5.11,4.46-14.14,4.45t-14.17-4.42q-5-4.41-5-13.63V195H206v28a20.51,20.51,0,0,0,.32,3.6,7,7,0,0,0,4.13,5.33,11.4,11.4,0,0,0,4.83.85q5.3,0,7.32-2.37t2-7.41V195h9.91v28Q234.57,232.2,229.46,236.65Z"/><path class="cls-2" d="M30,10.15H226a20,20,0,0,1,20,20v148.7a0,0,0,0,1,0,0H10a0,0,0,0,1,0,0V30.15a20,20,0,0,1,20-20Z"/><g class="cls-3"><path class="cls-1" d="M135,130.32a36.5,36.5,0,1,0-15-.21V179h15Z"/><path class="cls-1" d="M165,156.56a72.57,72.57,0,0,0,29.24-90.42L177.3,75A53.49,53.49,0,0,1,150,143v36h15Z"/><path class="cls-1" d="M107,164V143.92A53.5,53.5,0,1,1,172.79,66l16.9-8.8A72.5,72.5,0,1,0,92,157.71V179h15Z"/></g></g></g></svg>