<svg xmlns="http://www.w3.org/2000/svg" xmlns:xlink="http://www.w3.org/1999/xlink" viewBox="0 0 256 270.45"><defs><style>.cls-1{font-size:63.12px;font-family:HelveticaNeue-Bold, Helvetica Neue;font-weight:700;letter-spacing:0.07em;}.cls-1,.cls-5{fill:#fff;}.cls-2{letter-spacing:0.11em;}.cls-3{fill:url(#Degradado_sin_nombre_7);}.cls-4{opacity:0.65;}</style><linearGradient id="Degradado_sin_nombre_7" x1="128" y1="178.85" x2="128" y2="10.15" gradientUnits="userSpaceOnUse"><stop offset="0" stop-color="#2e3192"/><stop offset="1" stop-color="#29abe2"/></linearGradient></defs><title>Recurso 2</title><g id="Capa_2" data-name="Capa 2"><g id="Capa_1-2" data-name="Capa 1"><rect width="256" height="256" rx="20" ry="20"/><text class="cls-1" transform="translate(14.39 240.09)">A<tspan class="cls-2" x="47.34" y="0">VIEW</tspan></text><path class="cls-3" d="M30,10.15H226a20,20,0,0,1,20,20v148.7a0,0,0,0,1,0,0H10a0,0,0,0,1,0,0V30.15a20,20,0,0,1,20-20Z"/><g class="cls-4"><path class="cls-5" d="M135,130.32a36.5,36.5,0,1,0-15-.21V179h15Z"/><path class="cls-5" d="M165,156.56a72.57,72.57,0,0,0,29.24-90.42L177.3,75A53.49,53.49,0,0,1,150,143v36h15Z"/><path class="cls-5" d="M107,164V143.92A53.5,53.5,0,1,1,172.79,66l16.9-8.8A72.5,72.5,0,1,0,92,157.71V179h15Z"/></g></g></g></svg>