<svg xmlns="http://www.w3.org/2000/svg" xmlns:xlink="http://www.w3.org/1999/xlink" viewBox="0 0 256 256"><defs><style>.cls-1{fill:#fff;}.cls-2{fill:url(#Degradado_sin_nombre_7);}.cls-3{opacity:0.65;}</style><linearGradient id="Degradado_sin_nombre_7" x1="128" y1="178.85" x2="128" y2="10.15" gradientUnits="userSpaceOnUse"><stop offset="0" stop-color="#2e3192"/><stop offset="1" stop-color="#29abe2"/></linearGradient></defs><title>logo-icon_2</title><g id="Capa_2" data-name="Capa 2"><g id="Capa_1-2" data-name="Capa 1"><rect width="256" height="256" rx="20" ry="20"/><path class="cls-1" d="M41,195l16.86,45.06H47.53l-3.41-10H27.27l-3.54,10h-10L30.8,195Zm.57,27.64-5.68-16.54h-.12l-5.87,16.54Z"/><path class="cls-1" d="M75.74,240.09,61.16,195H71.32l10,31.68h.12L91.65,195h10.22l-15,45.06Z"/><path class="cls-1" d="M122.76,195v45.06h-9.91V195Z"/><path class="cls-1" d="M172.31,195v8.33h-23.8V213h21.84v7.7H148.51v11h24.3v8.33H138.6V195Z"/><path class="cls-1" d="M219.71,240.09l-7.64-30.67h-.13l-7.51,30.67h-10L182.47,195h9.91l7.13,30.67h.13L207.46,195h9.28l7.7,31.05h.13L232,195h9.72l-12.12,45.06Z"/><path class="cls-2" d="M30,10.15H226a20,20,0,0,1,20,20v148.7a0,0,0,0,1,0,0H10a0,0,0,0,1,0,0V30.15a20,20,0,0,1,20-20Z"/><g class="cls-3"><path class="cls-1" d="M135,130.32a36.5,36.5,0,1,0-15-.21V179h15Z"/><path class="cls-1" d="M165,156.56a72.57,72.57,0,0,0,29.24-90.42L177.3,75A53.49,53.49,0,0,1,150,143v36h15Z"/><path class="cls-1" d="M107,164V143.92A53.5,53.5,0,1,1,172.79,66l16.9-8.8A72.5,72.5,0,1,0,92,157.71V179h15Z"/></g></g></g></svg>